HIERARCHY
ROOT mixamorig:Hips
{
	OFFSET -0.000008 104.274872 1.554316
	CHANNELS 6 Xposition Yposition Zposition Xrotation Yrotation Zrotation
	JOINT mixamorig:Spine
	{
		OFFSET -0.000005 10.181595 0.131521
		CHANNELS 6 Xposition Yposition Zposition Xrotation Yrotation Zrotation
		JOINT mixamorig:Spine1
		{
			OFFSET -0.000000 9.893959 -1.470711
			CHANNELS 6 Xposition Yposition Zposition Xrotation Yrotation Zrotation
			JOINT mixamorig:Spine2
			{
				OFFSET -0.000000 9.220757 -1.370642
				CHANNELS 3 Xrotation Yrotation Zrotation
				JOINT mixamorig:Neck
				{
					OFFSET 0.000001 16.740417 -2.049038
					CHANNELS 6 Xposition Yposition Zposition Xrotation Yrotation Zrotation
					JOINT mixamorig:Head
					{
						OFFSET 0.000000 9.617874 1.685009
						CHANNELS 6 Xposition Yposition Zposition Xrotation Yrotation Zrotation
						JOINT mixamorig:HeadTop_End
						{
							OFFSET 0.000002 22.037384 7.501098
							CHANNELS 6 Xposition Yposition Zposition Xrotation Yrotation Zrotation
							End Site
							{
								OFFSET 0.000002 23.106583 -2.828261
							}
						}
					}
				}
				JOINT mixamorig:RightShoulder
				{
					OFFSET -4.569969 11.014923 -2.160886
					CHANNELS 6 Xposition Yposition Zposition Xrotation Yrotation Zrotation
					JOINT mixamorig:RightArm
					{
						OFFSET -10.592850 -0.524811 -2.232100
						CHANNELS 3 Xrotation Yrotation Zrotation
						JOINT mixamorig:RightForeArm
						{
							OFFSET -27.841520 0.000015 -0.000005
							CHANNELS 6 Xposition Yposition Zposition Xrotation Yrotation Zrotation
							JOINT mixamorig:RightHand
							{
								OFFSET -28.328838 -0.000015 0.000018
								CHANNELS 6 Xposition Yposition Zposition Xrotation Yrotation Zrotation
								JOINT mixamorig:RightHandThumb1
								{
									OFFSET -2.464806 -1.573990 2.681853
									CHANNELS 6 Xposition Yposition Zposition Xrotation Yrotation Zrotation
									JOINT mixamorig:RightHandThumb2
									{
										OFFSET -3.215195 -1.872772 1.924282
										CHANNELS 6 Xposition Yposition Zposition Xrotation Yrotation Zrotation
										JOINT mixamorig:RightHandThumb3
										{
											OFFSET -2.654823 -1.527985 1.512609
											CHANNELS 6 Xposition Yposition Zposition Xrotation Yrotation Zrotation
											JOINT mixamorig:RightHandThumb4
											{
												OFFSET -2.018822 -1.152008 1.108055
												CHANNELS 3 Xrotation Yrotation Zrotation
												End Site
												{
													OFFSET -1.888100 -1.145340 1.324313
												}
											}
										}
									}
								}
								JOINT mixamorig:RightHandIndex1
								{
									OFFSET -9.108284 -0.517868 2.259835
									CHANNELS 6 Xposition Yposition Zposition Xrotation Yrotation Zrotation
									JOINT mixamorig:RightHandIndex2
									{
										OFFSET -3.699997 0.000000 0.001215
										CHANNELS 3 Xrotation Yrotation Zrotation
										JOINT mixamorig:RightHandIndex3
										{
											OFFSET -2.850014 0.000031 -0.000522
											CHANNELS 3 Xrotation Yrotation Zrotation
											JOINT mixamorig:RightHandIndex4
											{
												OFFSET -2.772179 -0.000015 -0.000019
												CHANNELS 3 Xrotation Yrotation Zrotation
												End Site
												{
													OFFSET -2.772186 0.000000 -0.000502
												}
											}
										}
									}
								}
								JOINT mixamorig:RightHandMiddle1
								{
									OFFSET -9.532509 -0.000046 -0.000025
									CHANNELS 6 Xposition Yposition Zposition Xrotation Yrotation Zrotation
									JOINT mixamorig:RightHandMiddle2
									{
										OFFSET -3.700012 0.000000 0.003713
										CHANNELS 3 Xrotation Yrotation Zrotation
										JOINT mixamorig:RightHandMiddle3
										{
											OFFSET -2.949989 0.000015 -0.002054
											CHANNELS 3 Xrotation Yrotation Zrotation
											JOINT mixamorig:RightHandMiddle4
											{
												OFFSET -2.946625 0.000000 -0.000154
												CHANNELS 3 Xrotation Yrotation Zrotation
												End Site
												{
													OFFSET -2.946632 0.000015 -0.001136
												}
											}
										}
									}
								}
								JOINT mixamorig:RightHandRing1
								{
									OFFSET -9.103600 -0.043076 -1.865135
									CHANNELS 6 Xposition Yposition Zposition Xrotation Yrotation Zrotation
									JOINT mixamorig:RightHandRing2
									{
										OFFSET -3.379272 0.000000 -0.001054
										CHANNELS 3 Xrotation Yrotation Zrotation
										JOINT mixamorig:RightHandRing3
										{
											OFFSET -2.889694 0.000015 0.000379
											CHANNELS 3 Xrotation Yrotation Zrotation
											JOINT mixamorig:RightHandRing4
											{
												OFFSET -2.638809 0.000000 0.000941
												CHANNELS 3 Xrotation Yrotation Zrotation
												End Site
												{
													OFFSET -2.638802 0.000000 0.005160
												}
											}
										}
									}
								}
								JOINT mixamorig:RightHandPinky1
								{
									OFFSET -8.076675 -0.486710 -3.806280
									CHANNELS 6 Xposition Yposition Zposition Xrotation Yrotation Zrotation
									JOINT mixamorig:RightHandPinky2
									{
										OFFSET -3.600006 -0.000031 -0.003747
										CHANNELS 3 Xrotation Yrotation Zrotation
										JOINT mixamorig:RightHandPinky3
										{
											OFFSET -2.099976 -0.000015 -0.005740
											CHANNELS 3 Xrotation Yrotation Zrotation
											JOINT mixamorig:RightHandPinky4
											{
												OFFSET -2.115776 -0.000031 -0.003680
												CHANNELS 3 Xrotation Yrotation Zrotation
												End Site
												{
													OFFSET -2.115776 -0.000015 -0.003507
												}
											}
										}
									}
								}
							}
						}
					}
				}
				JOINT mixamorig:LeftShoulder
				{
					OFFSET 4.570447 11.014725 -2.160858
					CHANNELS 6 Xposition Yposition Zposition Xrotation Yrotation Zrotation
					JOINT mixamorig:LeftArm
					{
						OFFSET 10.592371 -0.524597 -2.232121
						CHANNELS 3 Xrotation Yrotation Zrotation
						JOINT mixamorig:LeftForeArm
						{
							OFFSET 27.841520 -0.000015 0.000023
							CHANNELS 3 Xrotation Yrotation Zrotation
							JOINT mixamorig:LeftHand
							{
								OFFSET 28.328835 -0.000046 0.000017
								CHANNELS 6 Xposition Yposition Zposition Xrotation Yrotation Zrotation
								JOINT mixamorig:LeftHandThumb1
								{
									OFFSET 2.466141 -1.576187 2.681734
									CHANNELS 6 Xposition Yposition Zposition Xrotation Yrotation Zrotation
									JOINT mixamorig:LeftHandThumb2
									{
										OFFSET 3.217804 -1.872055 1.916487
										CHANNELS 6 Xposition Yposition Zposition Xrotation Yrotation Zrotation
										JOINT mixamorig:LeftHandThumb3
										{
											OFFSET 2.656021 -1.528809 1.514508
											CHANNELS 6 Xposition Yposition Zposition Xrotation Yrotation Zrotation
											JOINT mixamorig:LeftHandThumb4
											{
												OFFSET 2.020889 -1.154068 1.115132
												CHANNELS 6 Xposition Yposition Zposition Xrotation Yrotation Zrotation
												End Site
												{
													OFFSET 1.908852 -1.150833 1.300490
												}
											}
										}
									}
								}
								JOINT mixamorig:LeftHandIndex1
								{
									OFFSET 9.109306 -0.518036 2.259871
									CHANNELS 6 Xposition Yposition Zposition Xrotation Yrotation Zrotation
									JOINT mixamorig:LeftHandIndex2
									{
										OFFSET 3.699997 -0.000015 -0.000323
										CHANNELS 3 Xrotation Yrotation Zrotation
										JOINT mixamorig:LeftHandIndex3
										{
											OFFSET 2.850006 -0.000015 0.000350
											CHANNELS 3 Xrotation Yrotation Zrotation
											JOINT mixamorig:LeftHandIndex4
											{
												OFFSET 2.774857 -0.000015 -0.000027
												CHANNELS 3 Xrotation Yrotation Zrotation
												End Site
												{
													OFFSET 2.774864 0.000000 -0.000099
												}
											}
										}
									}
								}
								JOINT mixamorig:LeftHandMiddle1
								{
									OFFSET 9.533401 0.000031 0.000044
									CHANNELS 6 Xposition Yposition Zposition Xrotation Yrotation Zrotation
									JOINT mixamorig:LeftHandMiddle2
									{
										OFFSET 3.699997 0.000000 -0.000231
										CHANNELS 3 Xrotation Yrotation Zrotation
										JOINT mixamorig:LeftHandMiddle3
										{
											OFFSET 2.949997 -0.000015 -0.000059
											CHANNELS 3 Xrotation Yrotation Zrotation
											JOINT mixamorig:LeftHandMiddle4
											{
												OFFSET 2.952866 0.000000 0.000062
												CHANNELS 3 Xrotation Yrotation Zrotation
												End Site
												{
													OFFSET 2.952858 0.000000 0.000228
												}
											}
										}
									}
								}
								JOINT mixamorig:LeftHandRing1
								{
									OFFSET 9.104530 -0.043030 -1.865075
									CHANNELS 6 Xposition Yposition Zposition Xrotation Yrotation Zrotation
									JOINT mixamorig:LeftHandRing2
									{
										OFFSET 3.150009 0.000000 0.000042
										CHANNELS 3 Xrotation Yrotation Zrotation
										JOINT mixamorig:LeftHandRing3
										{
											OFFSET 2.949989 -0.000015 0.000040
											CHANNELS 3 Xrotation Yrotation Zrotation
											JOINT mixamorig:LeftHandRing4
											{
												OFFSET 2.644318 -0.000015 0.000056
												CHANNELS 6 Xposition Yposition Zposition Xrotation Yrotation Zrotation
												End Site
												{
													OFFSET 2.644318 0.000000 0.000120
												}
											}
										}
									}
								}
								JOINT mixamorig:LeftHandPinky1
								{
									OFFSET 8.077782 -0.486877 -3.806258
									CHANNELS 6 Xposition Yposition Zposition Xrotation Yrotation Zrotation
									JOINT mixamorig:LeftHandPinky2
									{
										OFFSET 3.599960 0.000031 0.014726
										CHANNELS 3 Xrotation Yrotation Zrotation
										JOINT mixamorig:LeftHandPinky3
										{
											OFFSET 2.099998 0.000031 0.007705
											CHANNELS 3 Xrotation Yrotation Zrotation
											JOINT mixamorig:LeftHandPinky4
											{
												OFFSET 2.125504 0.000000 0.007515
												CHANNELS 3 Xrotation Yrotation Zrotation
												End Site
												{
													OFFSET 2.125511 0.000015 0.006257
												}
											}
										}
									}
								}
							}
						}
					}
				}
			}
		}
	}
	JOINT mixamorig:RightUpLeg
	{
		OFFSET -8.207787 -6.751663 -1.599560
		CHANNELS 6 Xposition Yposition Zposition Xrotation Yrotation Zrotation
		JOINT mixamorig:RightLeg
		{
			OFFSET -0.000001 -44.370129 0.345939
			CHANNELS 3 Xrotation Yrotation Zrotation
			JOINT mixamorig:RightFoot
			{
				OFFSET 0.000001 -44.423679 -3.043537
				CHANNELS 3 Xrotation Yrotation Zrotation
				JOINT mixamorig:RightToeBase
				{
					OFFSET -0.000003 -8.728673 10.710563
					CHANNELS 6 Xposition Yposition Zposition Xrotation Yrotation Zrotation
					JOINT mixamorig:RightToe_End
					{
						OFFSET -0.000002 -0.000676 9.278122
						CHANNELS 6 Xposition Yposition Zposition Xrotation Yrotation Zrotation
						End Site
						{
							OFFSET -0.000003 -0.000676 9.278122
						}
					}
				}
			}
		}
	}
	JOINT mixamorig:LeftUpLeg
	{
		OFFSET 8.207791 -6.751694 -1.599555
		CHANNELS 6 Xposition Yposition Zposition Xrotation Yrotation Zrotation
		JOINT mixamorig:LeftLeg
		{
			OFFSET -0.000002 -44.370033 0.346957
			CHANNELS 3 Xrotation Yrotation Zrotation
			JOINT mixamorig:LeftFoot
			{
				OFFSET 0.000000 -44.423672 -3.044393
				CHANNELS 3 Xrotation Yrotation Zrotation
				JOINT mixamorig:LeftToeBase
				{
					OFFSET -0.000003 -8.728668 10.710562
					CHANNELS 6 Xposition Yposition Zposition Xrotation Yrotation Zrotation
					JOINT mixamorig:LeftToe_End
					{
						OFFSET -0.000003 -0.000676 9.278135
						CHANNELS 6 Xposition Yposition Zposition Xrotation Yrotation Zrotation
						End Site
						{
							OFFSET -0.000003 -0.000677 9.278135
						}
					}
				}
			}
		}
	}
}
MOTION
Frames: 4
Frame Time: 0.033333
0.478548 101.630875 1.555252 -0.893300 1.577728 -5.359008 -0.000006 10.181583 0.131521 1.298038 -1.197537 3.016666 -0.000000 9.893946 -1.470711 0.728746 0.264202 5.944686 0.710789 0.781496 5.851996 0.000003 16.740421 -2.049036 1.045308 -0.304695 -2.160953 0.000001 9.617894 1.685010 1.584883 0.544202 -8.137578 0.000002 22.037354 7.501099 0.000000 0.000000 -0.000000 -4.569966 11.014946 -2.160885 4.508134 3.324388 5.471548 -1.219720 0.655869 67.345440 -27.841515 0.000017 0.000003 -0.000010 17.736784 0.000020 -28.328836 0.000002 0.000023 -11.193503 -9.123345 10.139215 -2.464805 -1.573976 2.681850 18.674031 -0.305786 -11.095015 -3.215199 -1.872773 1.924274 0.917646 -31.776663 3.259780 -2.654857 -1.527957 1.512615 1.627441 -7.716529 1.250103 -0.000003 -0.000000 -0.000004 -9.108284 -0.517876 2.259836 0.344629 -4.699119 7.844068 0.383323 -2.795081 20.565906 -0.193211 -0.226545 13.843904 0.000000 -0.000000 0.000001 -9.532511 0.000002 -0.000023 0.926600 -8.819376 15.821865 0.897837 -3.901820 33.413234 0.215653 -1.725901 15.897798 0.000001 0.000000 -0.000001 -9.103600 -0.043073 -1.865132 2.544199 -11.651221 26.899255 1.715735 -3.910756 40.218070 -0.151721 0.023498 17.812891 -0.000000 0.000000 0.000000 -8.076679 -0.486706 -3.806280 5.536161 -15.980740 36.929648 1.266554 -4.027861 45.637517 -0.765251 -0.311779 22.119212 0.000000 -0.000001 -0.000001 4.570450 11.014768 -2.160856 3.582351 -13.764046 -5.044480 4.032851 3.514352 -83.678225 -0.000020 -14.506789 0.000000 28.328823 -0.000055 0.000014 -27.592484 3.698833 -9.416235 2.466123 -1.576217 2.681732 18.639672 0.201103 11.067454 3.217810 -1.872040 1.916486 0.957403 31.893036 -3.237419 2.656002 -1.528815 1.514495 1.818147 8.673909 -0.462053 2.020903 -1.154089 1.115137 0.000002 0.000002 -0.000006 9.109289 -0.518058 2.259870 0.338883 4.666300 -7.844123 0.389505 2.835139 -20.566383 0.034511 0.809232 -10.169797 -0.000000 0.000000 -0.000003 9.533403 0.000011 0.000040 0.911571 8.765805 -15.831586 0.917455 3.992194 -33.382150 0.171145 1.492566 -12.277942 0.000001 -0.000001 -0.000002 9.104518 -0.043047 -1.865075 2.556122 11.673656 -26.909146 1.711115 3.886614 -40.215488 0.545074 1.835014 -19.344131 2.644325 0.000000 0.000057 0.000000 0.000000 0.000000 8.077771 -0.486874 -3.806258 5.722748 16.216375 -36.981957 1.528819 3.990389 -45.650153 0.557583 2.832850 -20.526322 0.000000 0.000002 0.000001 -8.207789 -6.751677 -1.599560 -1.605294 -4.966826 10.551748 12.449045 -5.082067 3.268388 -9.847012 1.008400 -7.754722 -0.000004 -8.728669 10.710564 -0.514654 0.000007 0.000003 -0.000002 -0.000676 9.278122 -0.000000 -0.000001 -0.000000 8.207788 -6.751713 -1.599556 -19.555977 10.813099 15.936240 22.045071 9.498150 2.339205 -1.490961 3.341967 -8.781917 -0.000000 -8.728672 10.710560 -0.441960 -0.000001 -0.000005 -0.000004 -0.000677 9.278139 0.000003 -0.000001 -0.000000 
0.491551 101.615486 1.541585 -1.040289 1.593725 -5.386332 -0.000005 10.181584 0.131521 1.316913 -1.139175 3.039876 -0.000001 9.893962 -1.470714 0.760944 0.379988 5.964480 0.743259 0.897160 5.872069 0.000005 16.740437 -2.049034 1.062487 -0.371944 -2.155060 0.000003 9.617895 1.685011 1.809418 0.516723 -8.216051 0.000002 22.037354 7.501100 -0.000000 -0.000000 0.000000 -4.569965 11.014933 -2.160885 4.450916 3.680451 6.087084 -0.910777 -0.615809 66.730395 -27.841509 0.000014 0.000002 -0.000001 18.579368 0.000022 -28.328829 0.000017 0.000025 -8.364457 -11.731818 7.549571 -2.464817 -1.573946 2.681858 18.671427 -0.305713 -11.063678 -3.215219 -1.872794 1.924272 0.937132 -31.773156 3.309639 -2.654848 -1.527967 1.512614 1.627454 -7.716527 1.250100 0.000000 0.000000 0.000001 -9.108294 -0.517853 2.259837 0.344621 -4.699122 7.844062 0.383328 -2.795074 20.565889 -0.193203 -0.226550 13.843908 0.000000 -0.000001 -0.000001 -9.532530 -0.000002 -0.000022 0.926616 -8.819380 15.821891 0.897830 -3.901818 33.413234 0.215644 -1.725904 15.897795 0.000001 0.000001 -0.000003 -9.103607 -0.043061 -1.865133 2.544204 -11.651221 26.899245 1.715733 -3.910755 40.218080 -0.151712 0.023503 17.812884 0.000000 0.000000 -0.000000 -8.076698 -0.486706 -3.806284 5.536162 -15.980740 36.929661 1.266556 -4.027855 45.637507 -0.765253 -0.311782 22.119218 0.000002 0.000001 0.000000 4.570454 11.014755 -2.160855 3.525054 -13.876497 -5.184386 4.325030 4.143567 -83.372465 -0.000040 -15.205874 -0.000017 28.328835 -0.000065 0.000026 -26.844626 4.027877 -9.351968 2.466146 -1.576210 2.681732 18.639673 0.201105 11.067466 3.217809 -1.872070 1.916487 0.957405 31.893036 -3.237422 2.656008 -1.528817 1.514503 1.818148 8.673905 -0.462053 2.020891 -1.154084 1.115138 0.000001 0.000000 -0.000007 9.109309 -0.518067 2.259869 0.643428 4.285856 -6.741627 0.389500 2.835139 -20.566379 0.034523 0.809240 -10.169815 -0.000000 0.000001 -0.000004 9.533407 0.000010 0.000039 0.799174 8.479026 -14.666648 0.917459 3.992192 -33.382153 0.171135 1.492558 -12.277945 0.000000 -0.000001 0.000002 9.104531 -0.043052 -1.865077 2.121553 11.158568 -24.118035 1.710163 3.885695 -40.202312 0.545073 1.835018 -19.344142 2.644318 0.000031 0.000058 0.000000 -0.000001 -0.000000 8.077781 -0.486881 -3.806263 4.845081 15.821910 -32.626407 1.522300 3.983365 -45.554425 0.557029 2.831737 -20.513932 0.000000 0.000001 -0.000001 -8.207788 -6.751670 -1.599560 -1.521811 -4.975573 10.600113 12.581475 -4.979041 3.221982 -9.919831 0.902024 -7.742661 -0.000004 -8.728669 10.710563 -0.514645 0.000001 -0.000000 -0.000003 -0.000676 9.278122 -0.000000 0.000000 -0.000000 8.207788 -6.751711 -1.599556 -19.510729 10.735276 15.922795 22.222260 9.578052 2.449516 -1.460466 3.341588 -8.832282 -0.000001 -8.728672 10.710560 -0.527477 -0.000002 0.000006 -0.000003 -0.000677 9.278139 0.000003 0.000001 -0.000000 
0.533115 101.598984 1.543024 -1.168859 1.697563 -5.394827 -0.000005 10.181583 0.131521 1.326255 -1.087662 3.042889 -0.000002 9.893970 -1.470714 0.775263 0.479431 5.959476 0.758038 0.996563 5.867298 0.000002 16.740393 -2.049032 1.119015 -0.418126 -2.140873 0.000006 9.617912 1.685004 2.216577 0.606791 -8.265386 0.000002 22.037384 7.501099 0.000000 -0.000000 0.000000 -4.569966 11.014908 -2.160883 4.375457 4.024463 6.469280 -0.586942 -1.967862 66.349106 -27.841520 0.000014 0.000002 -0.000003 19.518531 0.000001 -28.328842 0.000012 0.000025 -6.242565 -13.991340 5.229901 -2.464807 -1.573956 2.681854 18.663214 -0.301487 -10.984764 -3.215202 -1.872765 1.924268 0.995948 -31.755971 3.457478 -2.654854 -1.527963 1.512611 1.627430 -7.716536 1.250105 -0.000001 0.000002 0.000001 -9.108267 -0.517863 2.259838 0.344631 -4.699124 7.844049 0.383318 -2.795074 20.565908 -0.193204 -0.226544 13.843911 -0.000001 0.000001 -0.000001 -9.532503 -0.000006 -0.000021 0.926600 -8.819378 15.821862 0.897834 -3.901821 33.413234 0.215655 -1.725914 15.897812 0.000001 0.000000 0.000004 -9.103588 -0.043061 -1.865134 2.544205 -11.651224 26.899233 1.715730 -3.910752 40.218063 -0.151716 0.023498 17.812899 0.000002 0.000000 -0.000000 -8.076686 -0.486694 -3.806285 5.536146 -15.980746 36.929631 1.266559 -4.027861 45.637517 -0.765251 -0.311796 22.119223 -0.000000 -0.000000 0.000000 4.570448 11.014703 -2.160852 3.453921 -14.086669 -5.341830 5.385668 5.229548 -83.114304 -0.000040 -17.030996 -0.000009 28.328833 -0.000078 0.000018 -25.748343 4.522686 -9.055011 2.466121 -1.576218 2.681733 18.639682 0.201102 11.067456 3.217792 -1.872053 1.916488 0.957403 31.893042 -3.237421 2.656026 -1.528817 1.514507 1.818148 8.673905 -0.462051 2.020884 -1.154065 1.115129 0.000001 -0.000003 -0.000007 9.109303 -0.518057 2.259870 1.017908 3.853465 -5.439456 0.389502 2.835136 -20.566374 0.034519 0.809240 -10.169799 0.000001 -0.000000 0.000003 9.533405 0.000013 0.000042 0.679264 8.136749 -13.297792 0.917442 3.992194 -33.382157 0.171146 1.492567 -12.277959 -0.000001 -0.000001 0.000001 9.104534 -0.043044 -1.865077 1.662680 10.507832 -20.849163 1.709043 3.884612 -40.186716 0.545076 1.835030 -19.344148 2.644310 0.000030 0.000056 -0.000000 -0.000001 -0.000000 8.077776 -0.486883 -3.806257 3.867722 15.222268 -27.529738 1.514645 3.975079 -45.441846 0.556380 2.830412 -20.499334 -0.000001 -0.000000 -0.000000 -8.207788 -6.751673 -1.599560 -1.475869 -4.986801 10.616499 12.760597 -4.873028 3.172644 -10.031941 0.709613 -7.712774 -0.000004 -8.728670 10.710563 -0.514655 -0.000002 -0.000001 -0.000002 -0.000676 9.278122 -0.000000 0.000000 -0.000000 8.207793 -6.751715 -1.599554 -19.494586 10.693050 15.878866 22.419611 9.529035 2.523089 -1.489347 3.341959 -8.832015 -0.000003 -8.728668 10.710558 -0.594323 -0.000003 0.000002 -0.000002 -0.000677 9.278133 0.000003 0.000001 -0.000000 
0.595193 101.584641 1.544299 -1.306694 1.906686 -5.366353 -0.000005 10.181602 0.131521 1.338536 -1.043671 3.028834 -0.000000 9.893959 -1.470709 0.796254 0.565149 5.920263 0.779748 1.082294 5.828305 0.000002 16.740391 -2.049033 1.197846 -0.444294 -2.146683 0.000003 9.617923 1.685002 2.870202 0.777737 -8.299189 0.000003 22.037338 7.501103 0.000000 -0.000000 -0.000000 -4.569968 11.014907 -2.160883 4.294352 4.327486 6.689788 -0.708297 -3.482313 66.230384 -27.841505 0.000011 -0.000000 0.000002 20.109800 0.000025 -28.328833 0.000012 0.000027 -5.485431 -15.747824 3.402789 -2.464817 -1.573959 2.681856 18.654970 -0.289245 -10.856267 -3.215205 -1.872778 1.924270 1.091435 -31.727513 3.697735 -2.654836 -1.527967 1.512610 1.609450 -7.720992 1.248227 -0.000001 -0.000005 -0.000002 -9.108280 -0.517866 2.259837 0.344625 -4.699124 7.844040 0.383316 -2.795072 20.565899 -0.193206 -0.226550 13.843896 -0.000000 0.000000 0.000002 -9.532522 -0.000019 -0.000024 0.926598 -8.819377 15.821853 0.897832 -3.901819 33.413217 0.215658 -1.725913 15.897815 0.000001 0.000000 -0.000003 -9.103602 -0.043078 -1.865133 2.544191 -11.651225 26.899233 1.715742 -3.910760 40.218083 -0.151711 0.023505 17.812887 -0.000001 0.000001 0.000001 -8.076679 -0.486701 -3.806282 5.536146 -15.980742 36.929603 1.266564 -4.027869 45.637514 -0.765247 -0.311789 22.119216 0.000003 -0.000001 -0.000002 4.570449 11.014721 -2.160855 3.378138 -14.334539 -5.459166 6.631035 6.455394 -82.903586 -0.000023 -18.514343 0.000010 28.328825 -0.000050 0.000022 -24.533245 4.203957 -8.998947 2.466131 -1.576209 2.681731 18.639651 0.201098 11.067474 3.217804 -1.872070 1.916486 0.957402 31.893039 -3.237420 2.656010 -1.528807 1.514495 1.818146 8.673909 -0.462053 2.020895 -1.154084 1.115133 0.000000 -0.000001 -0.000009 9.109284 -0.518059 2.259871 1.433343 3.414018 -4.053539 0.389505 2.835128 -20.566355 0.034514 0.809244 -10.169814 0.000001 -0.000001 0.000004 9.533398 0.000009 0.000043 0.566846 7.768550 -11.849125 0.917446 3.992187 -33.382160 0.171144 1.492569 -12.277939 0.000000 0.000001 0.000004 9.104516 -0.043049 -1.865073 1.242667 9.770066 -17.402950 1.707886 3.883469 -40.170217 0.545066 1.835011 -19.344144 2.644306 0.000016 0.000057 0.000000 -0.000002 0.000002 8.077793 -0.486879 -3.806256 2.916416 14.434749 -22.169016 1.506542 3.966295 -45.322485 0.555693 2.829014 -20.483845 0.000001 -0.000000 -0.000000 -8.207788 -6.751662 -1.599560 -1.444641 -4.992659 10.609467 12.972327 -4.762425 3.098688 -10.171326 0.404406 -7.670555 -0.000004 -8.728669 10.710564 -0.514646 0.000004 -0.000002 -0.000002 -0.000676 9.278122 -0.000000 -0.000001 -0.000000 8.207793 -6.751692 -1.599553 -19.476144 10.658583 15.790363 22.621236 9.353720 2.569043 -1.526258 3.345391 -8.778843 -0.000002 -8.728670 10.710561 -0.679438 -0.000008 -0.000002 -0.000003 -0.000677 9.278135 0.000003 -0.000003 -0.000000 
